<svg width="24" height="24" viewBox="0 0 24 24" fill="none" xmlns="http://www.w3.org/2000/svg">
<path fill-rule="evenodd" clip-rule="evenodd" d="M5.70709 3.29289C5.31657 2.90237 4.6834 2.90237 4.29288 3.29289C3.90235 3.68342 3.90235 4.31658 4.29288 4.70711L19.2929 19.7071C19.6834 20.0976 20.3166 20.0976 20.7071 19.7071C21.0976 19.3166 21.0976 18.6834 20.7071 18.2929L18.7857 16.3715C20.0606 15.3082 21.0161 14.1302 21.6288 13.2653C22.1722 12.4982 22.1722 11.5018 21.6288 10.7347C20.2003 8.71804 16.908 5 12.0508 5C10.6444 5 9.36351 5.31168 8.21771 5.80351L5.70709 3.29289ZM10.0151 7.60087L11.4121 8.99787C11.6163 8.95818 11.8276 8.93736 12.044 8.93736C13.7996 8.93719 15.2228 10.3083 15.2228 11.9997C15.2228 12.2478 15.1922 12.4891 15.1344 12.7202L16.531 14.1168C16.8564 13.478 17.039 12.7595 17.039 11.9999C17.0389 9.34203 14.8024 7.18747 12.0435 7.18751C11.3213 7.18752 10.6349 7.33518 10.0151 7.60087ZM14.0109 16.4251L15.8083 18.2225C14.6869 18.6993 13.4321 19 12.0508 19C7.2197 19 3.86867 15.3219 2.39043 13.298C1.81899 12.5157 1.81899 11.4843 2.39043 10.702C3.01511 9.8467 3.97423 8.69604 5.23814 7.65237L7.5271 9.94133C7.22004 10.5655 7.04826 11.2634 7.04826 12C7.04816 13.2765 7.57445 14.5007 8.51132 15.4033C9.44819 16.3059 10.7189 16.8129 12.0438 16.8129C12.7423 16.8127 13.4072 16.6746 14.0109 16.4251ZM8.86509 11.9997C8.86511 11.7771 8.88978 11.56 8.93662 11.3508L12.6011 15.0153C12.4202 15.0461 12.234 15.0622 12.044 15.0622C10.2883 15.0622 8.86509 13.6911 8.86509 11.9997Z" fill="#AEB6BD"/>
</svg>
